<?xml version="1.0" encoding="UTF-8"?>
<svg viewBox="0 0 1200 700" xmlns="http://www.w3.org/2000/svg">
  <style>
    .region {
      fill: rgba(230, 230, 240, 0.8);
      stroke: #ffffff;
      stroke-width: 1;
      transition: all 0.3s ease;
      cursor: default;
    }
    .region.available {
      fill: rgba(30, 120, 190, 0.8);
      cursor: pointer;
    }
    .region.available:hover {
      fill: rgba(185, 160, 70, 0.9);
      transform: scale(1.02);
      transform-origin: center;
      stroke: #ffffff;
      stroke-width: 2;
      filter: drop-shadow(0 0 5px rgba(255, 255, 255, 0.5));
    }
    .region-label {
      font-family: 'Arial', sans-serif;
      font-size: 10px;
      fill: #fff;
      text-anchor: middle;
      pointer-events: none;
    }
  </style>
  
  <!-- Регионы России -->
  <g id="russia-map">
    <!-- Центральный федеральный округ -->
    <path id="RU-MOS" class="region" d="M330,240 L350,220 L370,230 L365,250 L345,260 Z" />
    <path id="RU-MOW" class="region" d="M335,235 L340,230 L345,235 L340,240 Z" />
    <path id="RU-BEL" class="region" d="M300,280 L320,270 L330,285 L320,295 L305,290 Z" />
    <path id="RU-BRY" class="region" d="M290,270 L310,260 L320,270 L300,280 L280,275 Z" />
    <path id="RU-IVA" class="region" d="M370,230 L390,220 L400,235 L390,245 L370,240 Z" />
    <path id="RU-KLU" class="region" d="M310,250 L330,240 L335,255 L325,260 L310,255 Z" />
    <path id="RU-KOS" class="region" d="M380,210 L400,200 L410,215 L400,225 L380,220 Z" />
    <path id="RU-KRS" class="region" d="M310,290 L330,280 L340,295 L330,305 L310,300 Z" />
    <path id="RU-LIP" class="region" d="M340,275 L360,265 L370,280 L360,290 L340,285 Z" />
    <path id="RU-ORL" class="region" d="M330,260 L350,250 L360,265 L340,275 L325,270 Z" />
    <path id="RU-RYA" class="region" d="M360,250 L380,240 L390,255 L380,265 L360,260 Z" />
    <path id="RU-SMO" class="region" d="M290,240 L310,230 L320,245 L310,250 L290,245 Z" />
    <path id="RU-TAM" class="region" d="M350,285 L370,275 L380,290 L370,300 L350,295 Z" />
    <path id="RU-TUL" class="region" d="M335,255 L355,245 L365,260 L355,270 L335,265 Z" />
    <path id="RU-TVE" class="region" d="M320,220 L340,210 L350,225 L340,235 L320,230 Z" />
    <path id="RU-VLA" class="region" d="M370,240 L390,230 L400,245 L390,255 L370,250 Z" />
    <path id="RU-VOR" class="region" d="M360,290 L380,280 L390,295 L380,305 L360,300 Z" />
    <path id="RU-YAR" class="region" d="M350,210 L370,200 L380,215 L370,225 L350,220 Z" />

    <!-- Северо-Западный федеральный округ -->
    <path id="RU-LEN" class="region" d="M290,180 L320,150 L350,160 L340,190 L300,200 Z" />
    <path id="RU-SPE" class="region" d="M300,175 L310,170 L315,180 L305,185 Z" />
    <path id="RU-KGD" class="region" d="M210,190 L230,180 L240,195 L230,205 L210,200 Z" />
    <path id="RU-KR" class="region" d="M355,120 L385,105 L400,130 L380,145 L360,130 Z" />
    <path id="RU-KO" class="region" d="M410,140 L450,120 L470,150 L450,170 L420,160 Z" />
    <path id="RU-ARK" class="region" d="M380,120 L420,100 L450,130 L430,150 L390,140 Z" />
    <path id="RU-MUR" class="region" d="M350,80 L380,60 L400,85 L380,100 L350,90 Z" />
    <path id="RU-NEN" class="region" d="M450,90 L490,70 L520,100 L500,120 L450,110 Z" />
    <path id="RU-NGR" class="region" d="M320,200 L340,190 L350,205 L340,215 L320,210 Z" />
    <path id="RU-PSK" class="region" d="M280,210 L300,200 L310,215 L300,225 L280,220 Z" />
    <path id="RU-VLG" class="region" d="M360,180 L380,170 L390,185 L380,195 L360,190 Z" />

    <!-- Южный федеральный округ -->
    <path id="RU-AD" class="region" d="M240,360 L250,350 L260,360 L250,370 Z" />
    <path id="RU-AST" class="region" d="M380,350 L400,340 L410,355 L400,365 L380,360 Z" />
    <path id="RU-VGG" class="region" d="M375,320 L395,310 L405,325 L395,335 L375,330 Z" />
    <path id="RU-ROS" class="region" d="M280,340 L300,330 L310,345 L300,355 L280,350 Z" />
    <path id="RU-KDA" class="region" d="M225,350 L255,330 L280,345 L265,365 L230,360 Z" />
    <path id="RU-SEV" class="region" d="M215,370 L220,365 L225,370 L220,375 Z" />
    <path id="RU-KRY" class="region" d="M200,360 L230,350 L240,370 L220,380 L200,370 Z" />
    <path id="RU-KL" class="region" d="M340,340 L360,330 L370,345 L360,355 L340,350 Z" />

    <!-- Северо-Кавказский федеральный округ -->
    <path id="RU-CE" class="region" d="M290,380 L300,375 L305,385 L295,390 Z" />
    <path id="RU-IN" class="region" d="M285,375 L295,370 L300,380 L290,385 Z" />
    <path id="RU-KB" class="region" d="M275,370 L285,365 L290,375 L280,380 Z" />
    <path id="RU-KC" class="region" d="M260,370 L270,365 L275,375 L265,380 Z" />
    <path id="RU-DA" class="region" d="M310,370 L330,360 L340,375 L330,385 L310,380 Z" />
    <path id="RU-SE" class="region" d="M280,375 L290,370 L295,380 L285,385 Z" />
    <path id="RU-STA" class="region" d="M290,345 L310,335 L320,350 L310,360 L290,355 Z" />

    <!-- Приволжский федеральный округ -->
    <path id="RU-BA" class="region" d="M470,250 L500,240 L510,255 L500,265 L470,260 Z" />
    <path id="RU-ME" class="region" d="M410,240 L430,230 L440,245 L430,255 L410,250 Z" />
    <path id="RU-MO" class="region" d="M390,260 L410,250 L420,265 L410,275 L390,270 Z" />
    <path id="RU-KIR" class="region" d="M430,200 L450,190 L460,205 L450,215 L430,210 Z" />
    <path id="RU-NIZ" class="region" d="M390,230 L410,220 L420,235 L410,245 L390,240 Z" />
    <path id="RU-ORE" class="region" d="M450,280 L470,270 L480,285 L470,295 L450,290 Z" />
    <path id="RU-PNZ" class="region" d="M400,270 L420,260 L430,275 L420,285 L400,280 Z" />
    <path id="RU-PER" class="region" d="M480,200 L510,190 L520,205 L510,215 L480,210 Z" />
    <path id="RU-SAM" class="region" d="M430,270 L450,260 L460,275 L450,285 L430,280 Z" />
    <path id="RU-SAR" class="region" d="M420,290 L440,280 L450,295 L440,305 L420,300 Z" />
    <path id="RU-TA" class="region" d="M440,230 L460,220 L470,235 L460,245 L440,240 Z" />
    <path id="RU-UD" class="region" d="M450,220 L470,210 L480,225 L470,235 L450,230 Z" />
    <path id="RU-ULY" class="region" d="M410,260 L430,250 L440,265 L430,275 L410,270 Z" />
    <path id="RU-CU" class="region" d="M430,230 L450,220 L460,235 L450,245 L430,240 Z" />

    <!-- Уральский федеральный округ -->
    <path id="RU-KGN" class="region" d="M520,240 L540,230 L550,245 L540,255 L520,250 Z" />
    <path id="RU-SVE" class="region" d="M530,220 L550,210 L560,225 L550,235 L530,230 Z" />
    <path id="RU-TYU" class="region" d="M550,190 L580,180 L590,195 L580,205 L550,200 Z" />
    <path id="RU-CHE" class="region" d="M530,240 L550,230 L560,245 L550,255 L530,250 Z" />
    <path id="RU-KHM" class="region" d="M570,160 L600,150 L610,165 L600,175 L570,170 Z" />
    <path id="RU-YAN" class="region" d="M580,120 L610,110 L620,125 L610,135 L580,130 Z" />

    <!-- Сибирский федеральный округ -->
    <path id="RU-ALT" class="region" d="M500,300 L520,290 L530,305 L520,315 L500,310 Z" />
    <path id="RU-AL" class="region" d="M480,320 L500,310 L510,325 L500,335 L480,330 Z" />
    <path id="RU-BU" class="region" d="M650,300 L670,290 L680,305 L670,315 L650,310 Z" />
    <path id="RU-ZAB" class="region" d="M700,280 L720,270 L730,285 L720,295 L700,290 Z" />
    <path id="RU-IRK" class="region" d="M650,240 L670,230 L680,245 L670,255 L650,250 Z" />
    <path id="RU-KEM" class="region" d="M580,250 L600,240 L610,255 L600,265 L580,260 Z" />
    <path id="RU-KYA" class="region" d="M620,220 L640,210 L650,225 L640,235 L620,230 Z" />
    <path id="RU-NVS" class="region" d="M580,230 L600,220 L610,235 L600,245 L580,240 Z" />
    <path id="RU-OMS" class="region" d="M540,230 L560,220 L570,235 L560,245 L540,240 Z" />
    <path id="RU-TOM" class="region" d="M590,210 L610,200 L620,215 L610,225 L590,220 Z" />
    <path id="RU-TY" class="region" d="M600,270 L620,260 L630,275 L620,285 L600,280 Z" />
    <path id="RU-KK" class="region" d="M610,260 L630,250 L640,265 L630,275 L610,270 Z" />

    <!-- Дальневосточный федеральный округ -->
    <path id="RU-AMU" class="region" d="M780,260 L800,250 L810,265 L800,275 L780,270 Z" />
    <path id="RU-YEV" class="region" d="M820,270 L835,265 L840,275 L830,280 Z" />
    <path id="RU-KAM" class="region" d="M900,200 L920,190 L930,205 L920,215 L900,210 Z" />
    <path id="RU-MAG" class="region" d="M850,170 L870,160 L880,175 L870,185 L850,180 Z" />
    <path id="RU-PRI" class="region" d="M840,290 L860,280 L870,295 L860,305 L840,300 Z" />
    <path id="RU-KHA" class="region" d="M820,230 L840,220 L850,235 L840,245 L820,240 Z" />
    <path id="RU-CHU" class="region" d="M900,90 L930,70 L950,100 L930,110 L900,100 Z" />
    <path id="RU-SA" class="region" d="M750,150 L780,140 L790,155 L780,165 L750,160 Z" />
    <path id="RU-SAK" class="region" d="M880,230 L890,225 L895,235 L885,240 Z" />
  </g>

  <!-- Города-филиалы (маркеры) будут добавлены динамически -->
</svg>